# xmcd CD database file generated by Grip 3.0.1
# 
# Track frame offsets:
#       150
#       8453
#       18800
#       35630
#       40843
#       51860
#       62820
#       75368
#       87970
#       99178
#       110833
#       131223
#       142403
#       155895
#       165443
#       178450
#       188295
#       197895
#       207773
#       221173
# 
# Disc length: 3230 seconds
# 
# Revision: 2
# Processed by: cddbd v1.4PL0 Copyright (c) Steve Scherf et al.
# Submitted via: Grip 3.0.1
# 
DISCID=180c9c14
DTITLE=Golden Gate Quartet - The very best of the Golden Gate Quartet 2 of 2
DYEAR=1960
DGENRE=Blues
TTITLE0=Ballin' the Jack
TTITLE1=Alexander's Ragtime Band
TTITLE2=The king of kings
TTITLE3=For the rest of my life
TTITLE4=Memories of You
TTITLE5=The world outside
TTITLE6=When the saints go marchin'In
TTITLE7=Margie
TTITLE8=Saint Louis Blues
TTITLE9=Me and brother Bill
TTITLE10=Deep River
TTITLE11=Rock my soul
TTITLE12=Glory Hellelujah
TTITLE13=Basin Street blues
TTITLE14=The brith of the blues
TTITLE15=On the sunny side of the street
TTITLE16=Sweet Georgia Brown
TTITLE17=Honey Pie
TTITLE18=The dock of the bay
TTITLE19=Oh Happy day
EXTD=
EXTT0=
EXTT1=
EXTT2=
EXTT3=
EXTT4=
EXTT5=
EXTT6=
EXTT7=
EXTT8=
EXTT9=
EXTT10=
EXTT11=
EXTT12=
EXTT13=
EXTT14=
EXTT15=
EXTT16=
EXTT17=
EXTT18=
EXTT19=
PLAYORDER=
